<svg xmlns="http://www.w3.org/2000/svg" width="885.226" height="258.54" viewBox="0 0 885.226 258.54">
  <path id="Rosie_Logo" data-name="Rosie Logo" d="M716.653,252.392q-22.623-5.149-36.5-17.052a63.684,63.684,0,0,1-18.091-26.166v44.46H569.54V224.376a69.753,69.753,0,0,1-18.813,16.113q-14.144,8.524-34.952,12.789a235.523,235.523,0,0,1-47.035,4.261q-58.1,0-83.532-15.984-14.044-8.822-20.322-22.414a73.432,73.432,0,0,1-5.894,7.673q-12.332,14.036-35.723,22.378t-62.456,8.347q-40.609,0-64.251-7.635t-35.468-21.314a66.007,66.007,0,0,1-15.167-31.971,218.162,218.162,0,0,1-3.34-39.253,177.027,177.027,0,0,1,3.856-36.943c.408-1.913.911-3.781,1.458-5.628-1.153-.022-2.305-.054-3.459-.054q-24.672,0-38.295,7.459T92.528,148.841V253.634H0V61.454H89.441V92.005H90.47a54.106,54.106,0,0,1,24.672-26.464,78.4,78.4,0,0,1,37.528-9.06h14.9V83.033q11.72-10.748,30.785-17.849,23.388-8.7,62.455-8.7,40.6,0,64.254,7.993T360.536,86.32A68.364,68.364,0,0,1,366,93.671c.153-.26.287-.522.446-.779q6.673-10.833,20.3-19.006T421.193,61.1q20.817-4.609,49.088-4.616,81.313,0,99.259,36.677v-31.7h92.524v46.953A69.155,69.155,0,0,1,682.214,79.57Q696.6,67.5,718.967,61.987t53.716-5.506q27.755,0,48.576,4.616t34.953,15.457a65.1,65.1,0,0,1,21.076,28.415q6.935,17.586,6.937,43.871v19.538H746.981V193.6q0,15.635,7.71,20.782a30.74,30.74,0,0,0,17.477,5.15q12.338,0,19.276-6.927t6.94-26.464h83.272q-1.032,35.524-26.215,53.462T772.684,257.54Q739.261,257.54,716.653,252.392ZM379.041,157.724a177.082,177.082,0,0,1-3.714,36.233h65.655a35.692,35.692,0,0,0,1.544,10.655,17.636,17.636,0,0,0,5.139,8.171q6.674,6.75,19.534,6.749a39.227,39.227,0,0,0,18.763-4.264q7.961-4.26,7.965-12.077,0-8.528-10.023-13.145a135.758,135.758,0,0,0-24.93-8.169q-14.912-3.547-32.126-7.462a167.077,167.077,0,0,1-32.128-10.657,78.029,78.029,0,0,1-15.712-9.4C379.022,155.481,379.041,156.594,379.041,157.724Zm-130.82-57.55q-4.892,2.492-7.968,9.237t-4.113,18.471q-1.032,11.724-1.026,29.841t1.026,29.66q1.026,11.545,4.113,18.295t7.968,9.237q4.879,2.485,12.593,2.486a29.454,29.454,0,0,0,12.853-2.486q5.132-2.482,7.967-9.237,2.819-6.746,3.856-18.295t1.027-29.66q0-18.121-1.027-29.841t-3.856-18.471q-2.834-6.743-7.967-9.237a29.5,29.5,0,0,0-12.853-2.485Q253.1,97.689,248.221,100.174Zm204.585-.709q-6.686,3.913-6.683,11.014,0,8.175,10.023,12.253a151.031,151.031,0,0,0,24.93,7.283q14.9,3.2,32.127,6.747a159.5,159.5,0,0,1,32.126,10.126,72.142,72.142,0,0,1,24.21,17V116.871h-75.1q0-12.429-6.425-16.872t-18.248-4.443Q459.479,95.555,452.806,99.465Zm299.572,3.2q-5.394,7.111-5.4,22.38v8.526h50.888V125.04q0-15.266-5.4-22.38t-20.305-7.105Q757.774,95.555,752.378,102.661ZM569.541,47.6V0h92.523V47.6Z" transform="translate(0.5 0.5)" fill="#9a1829" stroke="rgba(0,0,0,0)" stroke-width="1"/>
</svg>